<svg width="1025" height="1024" viewBox="0 0 1025 1024" fill="none" xmlns="http://www.w3.org/2000/svg">
<path d="M360.652 184H352.652C357.052 184 360.652 180.4 360.652 176V184H664.652V176C664.652 180.4 668.252 184 672.652 184H664.652V256H736.652V176C736.652 140.7 707.952 112 672.652 112H352.652C317.352 112 288.652 140.7 288.652 176V256H360.652V184ZM864.652 256H160.652C142.952 256 128.652 270.3 128.652 288V320C128.652 324.4 132.252 328 136.652 328H197.052L221.752 851C223.352 885.1 251.552 912 285.652 912H739.652C773.852 912 801.952 885.2 803.552 851L828.252 328H888.652C893.052 328 896.652 324.4 896.652 320V288C896.652 270.3 882.352 256 864.652 256ZM731.952 840H293.352L269.152 328H756.152L731.952 840Z" fill="black"/>
</svg>
